<svg xmlns="http://www.w3.org/2000/svg" viewBox="0 0 512 512" width="512" height="512">
  <rect width="512" height="512" rx="112" fill="#16a34a"/>
  <circle cx="256" cy="256" r="150" fill="none" stroke="#ffffff" stroke-width="26" opacity="0.9"/>
  <path d="M196 150v90a26 26 0 0 0 26 26h0v96a14 14 0 0 0 28 0V150a10 10 0 0 0-20 0v70a6 6 0 0 1-12 0v-70a10 10 0 0 0-20 0v70a6 6 0 0 1-12 0v-70a10 10 0 0 0-18 0z" fill="#ffffff"/>
  <path d="M322 150c-24 0-40 26-40 68 0 34 14 52 30 58v86a14 14 0 0 0 28 0V150a8 8 0 0 0-18 0z" fill="#ffffff"/>
</svg>
